:SAMPLES-PER-SECOND 30
:FULLY-SPECIFIED
:DEGREES
349
root  -3.25294 40.8686 -0.692146 -1.49243 -66.363 3.74298
RightUpLeg  6.46564 -3.3494 -1.56419
RightLeg  -6.36495 -41.779 5.27927
RightFoot  -1.78638 -0.299981 3.34927
RightToes  -3.10096e-008 1.75238e-005 3.56266e-009
Spine  -4.59737 1.99414 -3.75535
Spine1  2.28644 2.53638 -0.510887
HEad  -12.9947 -14.5533 10.6584
LeftShoulder1  3.68577 -8.49314 -24.5273
LeftArm  -19.2448 -26.8373 -31.3866
LeftForeArm  -2.81346 -64.4858 -25.1217
LeftHand  0.269934 -3.81159 -3.17492
RightShoulder  4.23113 8.80644 28.4033
RightArm  -37.3385 16.1226 19.6888
RightForeArm  -21.107 68.8396 34.2351
RightHand  -0.268067 4.98076 -3.30101
LeftUpLeg  -2.9903 -0.763665 1.2325
LeftLeg  -1.08512 -9.31705 0.0312989
LeftFoot  1.87606 0.333973 -2.98086
LeftToes  4.7633e-008 1.48299e-008 1.30754e-009
350
root  -3.2441 40.873 -0.672937 -1.63159 -67.6576 3.69943
RightUpLeg  6.43252 -3.22391 -1.54609
RightLeg  -6.08936 -40.6745 4.90819
RightFoot  -1.72033 -0.29332 3.23385
RightToes  -3.10096e-008 1.75238e-005 3.56266e-009
Spine  -4.78557 1.69972 -3.47037
Spine1  2.58492 2.26435 -0.74759
HEad  -13.058 -13.3079 9.80171
LeftShoulder1  3.38116 -8.12648 -22.8049
LeftArm  -15.2902 -29.6934 -32.7173
LeftForeArm  2.9808 -68.91 -31.6394
LeftHand  0.217043 -4.48888 -2.26051
RightShoulder  4.18739 8.84081 27.9402
RightArm  -35.2677 17.9936 20.2062
RightForeArm  -19.5653 69.5308 35.6381
RightHand  -0.276503 4.91914 -3.39373
LeftUpLeg  -2.67961 -0.563527 1.37031
LeftLeg  -0.991299 -8.25588 -0.0679861
LeftFoot  1.70646 0.317218 -2.86467
LeftToes  4.7633e-008 1.48299e-008 1.30754e-009
351
root  -3.23522 40.8833 -0.629158 -2.0121 -69.1312 3.91071
RightUpLeg  6.4005 -3.15934 -1.67264
RightLeg  -5.81069 -39.3436 4.50539
RightFoot  -1.61403 -0.290413 3.17677
RightToes  -3.10096e-008 1.75238e-005 3.56266e-009
Spine  -4.66735 1.58232 -3.29553
Spine1  2.28225 2.11785 -0.754701
HEad  -12.7992 -11.752 8.01794
LeftShoulder1  3.3207 -8.19992 -22.0581
LeftArm  -10.1718 -32.4126 -33.8316
LeftForeArm  12.5608 -73.5044 -43.2767
LeftHand  0.365342 -4.82233 -3.85516
RightShoulder  4.25906 9.15833 27.6384
RightArm  -32.4045 20.237 20.6547
RightForeArm  -16.4422 70.3455 37.345
RightHand  -0.0691691 4.90069 -1.09032
LeftUpLeg  -2.19111 -0.399829 1.40872
LeftLeg  -1.16644 -6.97806 -0.177759
LeftFoot  1.64645 0.301968 -2.74098
LeftToes  4.7633e-008 1.48299e-008 1.30754e-009
352
root  -3.21744 40.8957 -0.574304 -2.27483 -70.7128 4.05588
RightUpLeg  6.3438 -3.04657 -1.76879
RightLeg  -5.69496 -37.894 4.18696
RightFoot  -1.41569 -0.298996 3.29833
RightToes  -3.10096e-008 1.75238e-005 3.56266e-009
Spine  -4.77853 1.36279 -2.9856
Spine1  2.25323 1.82624 -0.567262
HEad  -12.2804 -9.79297 5.7696
LeftShoulder1  3.37049 -8.39886 -21.9987
LeftArm  -4.2445 -35.4186 -35.5198
LeftForeArm  31.7718 -77.1672 -62.4298
LeftHand  0.410849 -5.71265 -3.96192
RightShoulder  4.10927 9.08361 26.6182
RightArm  -27.8091 24.0523 22.5014
RightForeArm  -11.277 71.6899 40.6515
RightHand  0.0372342 5.05444 0.112912
LeftUpLeg  -1.79517 -0.208499 1.48243
LeftLeg  -1.28408 -5.60379 -0.319625
LeftFoot  1.57775 0.29744 -2.71177
LeftToes  4.7633e-008 1.48299e-008 1.30754e-009
353
root  -3.22526 40.9012 -0.509773 -2.80264 -72.3734 4.36053
RightUpLeg  6.28226 -3.02165 -1.94722
RightLeg  -5.17648 -36.2862 3.65159
RightFoot  -1.39787 -0.306574 3.40496
RightToes  -3.10096e-008 1.75238e-005 3.56266e-009
Spine  -4.49292 1.21907 -2.53757
Spine1  1.72379 1.65741 -0.729168
HEad  -11.4258 -8.68624 3.84153
LeftShoulder1  3.54567 -8.98045 -22.0828
LeftArm  2.13248 -38.5788 -38.2946
LeftForeArm  57.3833 -78.5926 -87.5837
LeftHand  0.468227 -6.5841 -4.19569
RightShoulder  4.20876 9.46464 26.4114
RightArm  -22.8317 27.8161 24.1707
RightForeArm  -3.71531 73.755 47.4976
RightHand  0.220781 4.98318 2.16727
LeftUpLeg  -1.22562 -0.118165 1.45997
LeftLeg  -1.38596 -4.0671 -0.381129
LeftFoot  1.39446 0.277306 -2.56079
LeftToes  4.7633e-008 1.48299e-008 1.30754e-009
354
root  -3.25225 40.9092 -0.445313 -3.16615 -73.9767 4.50047
RightUpLeg  6.42621 -2.93594 -2.03047
RightLeg  -5.16131 -34.7735 3.44162
RightFoot  -1.26468 -0.304116 3.35681
RightToes  -3.10096e-008 1.75238e-005 3.56266e-009
Spine  -4.67949 1.09068 -1.86226
Spine1  2.11298 1.52113 -0.995102
HEad  -11.4426 -6.90872 1.74261
LeftShoulder1  3.74868 -9.72385 -22.025
LeftArm  8.71243 -41.5583 -42.0169
LeftForeArm  83.4135 -77.6178 -113.477
LeftHand  0.532117 -6.65109 -4.72975
RightShoulder  4.10847 9.43942 25.6735
RightArm  -17.1835 32.0334 27.2866
RightForeArm  8.64341 76.0593 59.7305
RightHand  0.420683 4.82284 4.48
LeftUpLeg  -0.656763 0.195387 1.6102
LeftLeg  -1.46766 -2.91965 -0.602685
LeftFoot  1.22836 0.254255 -2.37667
LeftToes  4.7633e-008 1.48299e-008 1.30754e-009
355
root  -3.27261 40.9125 -0.373827 -3.85329 -75.5773 5.07295
RightUpLeg  6.26653 -2.90379 -2.21932
RightLeg  -4.68691 -33.2294 2.93098
RightFoot  -1.25679 -0.303042 3.33139
RightToes  -3.10096e-008 1.75238e-005 3.56266e-009
Spine  -4.62799 0.640336 -1.38262
Spine1  2.14207 1.02949 -1.04703
HEad  -11.7456 -3.85915 -0.367857
LeftShoulder1  3.73122 -10.0853 -21.0763
LeftArm  15.0593 -42.2027 -46.3924
LeftForeArm  104.618 -74.6427 -132.953
LeftHand  0.778431 -8.47025 -6.13938
RightShoulder  4.18317 9.9591 24.9694
RightArm  -10.6033 35.6458 30.7635
RightForeArm  28.2801 77.7043 81.2953
RightHand  0.614695 4.56201 6.87869
LeftUpLeg  -0.130984 0.220361 1.51381
LeftLeg  -1.69123 -1.32577 -0.67601
LeftFoot  1.06491 0.239361 -2.262
LeftToes  4.7633e-008 1.48299e-008 1.30754e-009
356
root  -3.32773 40.9135 -0.309466 -4.38063 -77.1222 5.42863
RightUpLeg  6.26558 -2.82613 -2.3011
RightLeg  -4.33543 -31.7979 2.52144
RightFoot  -1.24567 -0.315595 3.51898
RightToes  -3.10096e-008 1.75238e-005 3.56266e-009
Spine  -4.81719 0.112823 -0.763406
Spine1  2.77081 0.459015 -1.11267
HEad  -13.1074 -0.748379 -2.85674
LeftShoulder1  3.82675 -10.4389 -21.0695
LeftArm  20.0048 -41.3771 -48.4737
LeftForeArm  119.615 -70.1797 -146.357
LeftHand  0.846791 -9.37205 -6.16397
RightShoulder  4.22746 10.446 24.1521
RightArm  -3.47984 38.835 34.2005
RightForeArm  55.6275 77.0314 110.177
RightHand  0.823914 4.77132 9.05599
LeftUpLeg  0.621191 0.299051 1.49085
LeftLeg  -2.17888 0.246306 -0.725541
LeftFoot  0.892994 0.225168 -2.15189
LeftToes  4.7633e-008 1.48299e-008 1.30754e-009
357
root  -3.38319 40.9133 -0.240763 -5.4169 -78.5243 6.36243
RightUpLeg  6.13686 -2.84509 -2.52988
RightLeg  -3.80912 -30.3022 2.06526
RightFoot  -1.34039 -0.326751 3.68674
RightToes  -3.10096e-008 1.75238e-005 3.56266e-009
Spine  -5.96512 -0.204046 0.14349
Spine1  4.70653 0.267944 -1.97195
HEad  -14.7347 0.317727 -5.09094
LeftShoulder1  3.89537 -10.8033 -20.8278
LeftArm  23.7657 -39.9895 -49.9527
LeftForeArm  127.68 -66.493 -152.795
LeftHand  1.15271 -9.36904 -8.90269
RightShoulder  4.30301 10.6591 24.2355
RightArm  3.09937 41.4019 36.6959
RightForeArm  77.0087 74.3644 129.834
RightHand  1.18173 6.36055 11.2569
LeftUpLeg  1.07304 0.247013 1.32714
LeftLeg  -2.24966 1.68397 -0.757627
LeftFoot  0.726511 0.211156 -2.0397
LeftToes  4.7633e-008 1.48299e-008 1.30754e-009
358
root  -3.45461 40.9126 -0.203025 -7.01973 -79.9829 7.72743
RightUpLeg  6.2264 -2.8123 -2.69721
RightLeg  -3.5405 -28.9313 1.69861
RightFoot  -1.43597 -0.328808 3.71544
RightToes  -3.10096e-008 1.75238e-005 3.56266e-009
Spine  -7.03192 -0.376025 0.774949
Spine1  6.46495 0.185045 -2.53335
HEad  -17.1169 2.51298 -6.84431
LeftShoulder1  4.06621 -10.9749 -21.7448
LeftArm  25.7308 -37.7755 -49.1715
LeftForeArm  128.786 -65.0491 -154.573
LeftHand  1.1977 -5.13422 -12.3156
RightShoulder  4.29954 10.6819 24.1577
RightArm  8.66701 43.1853 39.8136
RightForeArm  82.6078 72.8456 135.678
RightHand  1.62489 7.12232 14.6077
LeftUpLeg  1.75091 0.434824 1.28716
LeftLeg  -2.43666 2.93328 -0.975181
LeftFoot  0.606897 0.196086 -1.90904
LeftToes  4.7633e-008 1.48299e-008 1.30754e-009
359
root  -3.52789 40.9117 -0.173981 -8.48671 -81.1488 8.72766
RightUpLeg  6.66808 -2.87616 -2.8466
RightLeg  -3.37922 -27.6299 1.53497
RightFoot  -1.51629 -0.338289 3.86179
RightToes  -3.10096e-008 1.75238e-005 3.56266e-009
Spine  -7.8888 -0.332275 1.49691
Spine1  7.9438 0.37116 -3.34391
HEad  -17.7 3.69865 -8.17187
LeftShoulder1  4.10161 -10.9254 -22.1108
LeftArm  25.7182 -35.4052 -48.9525
LeftForeArm  130.915 -67.2101 -152.144
LeftHand  0.632889 -12.1011 -5.33967
RightShoulder  4.42234 10.8213 24.7484
RightArm  11.1606 43.6972 40.5133
RightForeArm  79.4796 73.4678 133.196
RightHand  1.52518 6.43434 14.5101
LeftUpLeg  2.3896 0.6016 1.28692
LeftLeg  -2.14168 3.9022 -1.01678
LeftFoot  0.307522 0.200839 -1.99409
LeftToes  4.7633e-008 1.48299e-008 1.30754e-009
360
root  -3.58439 40.9087 -0.159477 -10.2086 -82.1305 9.8167
RightUpLeg  7.16683 -2.99091 -2.98983
RightLeg  -2.94721 -26.4346 1.26459
RightFoot  -1.6854 -0.346016 3.98366
RightToes  -3.10096e-008 1.75238e-005 3.56266e-009
Spine  -8.58485 -0.0849234 1.51742
Spine1  9.31026 0.57467 -3.03546
HEad  -18.4709 4.91461 -8.83317
LeftShoulder1  4.13472 -10.6393 -22.9636
LeftArm  24.9492 -33.5819 -49.1557
LeftForeArm  132.228 -71.6191 -145.226
LeftHand  -1.43207 -25.5671 6.39476
RightShoulder  4.47291 10.9648 24.7914
RightArm  11.636 43.6136 40.2129
RightForeArm  68.8051 75.8198 121.481
RightHand  1.2723 5.96961 12.5854
LeftUpLeg  3.39449 0.740318 1.29976
LeftLeg  -2.30792 4.64082 -1.0498
LeftFoot  0.124036 0.20465 -2.05874
LeftToes  4.7633e-008 1.48299e-008 1.30754e-009
